{
    "asset" : {
        "generator" : "Khronos glTF Blender I/O v1.8.19",
        "version" : "2.0"
    },
    "scene" : 0,
    "scenes" : [
        {
            "name" : "Scene",
            "nodes" : [
                0
            ]
        }
    ],
    "nodes" : [
        {
            "mesh" : 0,
            "name" : "Circle",
            "translation" : [
                0.0006023645401000977,
                -0.0024845898151397705,
                0
            ]
        }
    ],
    "materials" : [
        {
            "doubleSided" : true,
            "name" : "Bottle",
            "pbrMetallicRoughness" : {
                "baseColorFactor" : [
                    0,
                    0,
                    0,
                    1
                ],
                "metallicFactor" : 0,
                "roughnessFactor" : 0
            }
        }
    ],
    "meshes" : [
        {
            "name" : "Circle",
            "primitives" : [
                {
                    "attributes" : {
                        "POSITION" : 0,
                        "NORMAL" : 1,
                        "TEXCOORD_0" : 2
                    },
                    "indices" : 3,
                    "material" : 0
                }
            ]
        }
    ],
    "accessors" : [
        {
            "bufferView" : 0,
            "componentType" : 5126,
            "count" : 1057,
            "max" : [
                0.5227832198143005,
                4.660514831542969,
                0.5363302230834961
            ],
            "min" : [
                -0.5498772859573364,
                0.04239887744188309,
                -0.5363302230834961
            ],
            "type" : "VEC3"
        },
        {
            "bufferView" : 1,
            "componentType" : 5126,
            "count" : 1057,
            "type" : "VEC3"
        },
        {
            "bufferView" : 2,
            "componentType" : 5126,
            "count" : 1057,
            "type" : "VEC2"
        },
        {
            "bufferView" : 3,
            "componentType" : 5123,
            "count" : 6330,
            "type" : "SCALAR"
        }
    ],
    "bufferViews" : [
        {
            "buffer" : 0,
            "byteLength" : 12684,
            "byteOffset" : 0
        },
        {
            "buffer" : 0,
            "byteLength" : 12684,
            "byteOffset" : 12684
        },
        {
            "buffer" : 0,
            "byteLength" : 8456,
            "byteOffset" : 25368
        },
        {
            "buffer" : 0,
            "byteLength" : 12660,
            "byteOffset" : 33824
        }
    ],
    "buffers" : [
        {
            "byteLength" : 46484,
            "uri" : "data:application/octet-stream;base64,"
        }
    ]
}
