{"asset":{"version":"2.0","generator":"VECTARY"},"nodes":[{"translation":[0,0,0],"scale":[0.001,0.001,0.001],"rotation":[-0.7071067811865475,0,0,0.7071067811865476],"name":"Cylinder - baked","mesh":0}],"materials":[{"pbrMetallicRoughness":{"baseColorFactor":[1,1,1,1],"baseColorTexture":{"index":0,"extensions":{"KHR_texture_transform":{"offset":[0.06,1.99],"scale":[1,1],"rotation":0}},"texCoord":0},"metallicFactor":0,"roughnessFactor":0.28},"name":"Coastal Calm","emissiveFactor":[0,0,0],"extensions":{},"alphaMode":"OPAQUE","doubleSided":false}],"textures":[{"sampler":0,"source":0}],"images":[{"uri":"bottle.jpg","mimeType":"image/jpeg"}],"samplers":[{"wrapS":10497,"wrapT":10497}],"meshes":[{"primitives":[{"mode":4,"attributes":{"POSITION":1,"NORMAL":2,"TEXCOORD_0":3},"material":0,"indices":0}]}],"accessors":[{"bufferView":0,"byteOffset":0,"componentType":5125,"count":133440,"type":"SCALAR"},{"bufferView":1,"byteOffset":0,"componentType":5126,"count":25153,"max":[24.933076858520508,24.92064094543457,240.1241455078125],"min":[-24.933076858520508,-24.92064094543457,1.4022879600524902],"type":"VEC3"},{"bufferView":2,"byteOffset":0,"componentType":5126,"count":25153,"type":"VEC3"},{"bufferView":3,"byteOffset":0,"componentType":5126,"count":25153,"type":"VEC2"}],"bufferViews":[{"buffer":0,"byteOffset":0,"byteLength":533760,"target":34963},{"buffer":0,"byteOffset":533760,"byteLength":301836,"target":34962},{"buffer":0,"byteOffset":835596,"byteLength":301836,"target":34962},{"buffer":0,"byteOffset":1137432,"byteLength":201224,"target":34962}],"scene":0,"scenes":[{"nodes":[0],"name":"bottle"}],"extensionsUsed":["KHR_texture_transform"],"buffers":[{"byteLength":1338656,"uri":"bottle.bin"}]}