<?xml version="1.0" encoding="UTF-8"?>
<svg xmlns="http://www.w3.org/2000/svg" width="8.641mm" height="8.641mm" xmlns:xlink="http://www.w3.org/1999/xlink" viewBox="0 0 24.493 24.493">
  <defs>
    <style>
      .e {
        fill: none;
      }

      .f {
        fill: #053e33;
      }

      .g {
        clip-path: url(#d);
      }
    </style>
    <clipPath id="d">
      <rect width="24.493" height="24.493" fill="none"/>
    </clipPath>
  </defs>
  <g id="a" data-name="Laag 1"/>
  <g id="b" data-name="Laag 2">
    <g id="c" data-name="Laag 1">
      <g clip-path="#d">
        <path d="M16.695,24.493h5.661c1.18,0,2.137-.957,2.137-2.137V2.137c0-1.18-.957-2.137-2.137-2.137H2.137C.957,0,0,.957,0,2.137V22.356c0,1.18,.957,2.137,2.137,2.137H12.765V14.741h-2.568v-3.621h2.62v-2.646c0-1.746,1.299-4.66,4.083-4.7h3.648v3.493s-.822-.025-1.593-.025-2.26,.436-2.26,2.029-.026,1.952-.026,1.952h3.904v3.467h-3.878v9.803Z" fill="#053e33"/>
      </g>
    </g>
  </g>
</svg>