
<svg xmlns="http://www.w3.org/2000/svg" class="w-full h-auto pointer-events-none" width="1190" height="289.215" viewBox="0 0 1190 289.215">
  <g id="a" data-name="Laag 1" class=" animate-spin">
    <path d="M93.946,75.312c-29.505,0-50.856,19.798-64.055,43.48V5.822H0V285.72H29.891v-41.149c13.198,24.069,34.55,43.867,64.055,43.867,51.633,0,84.243-48.135,84.243-106.758,0-57.842-32.222-106.367-84.243-106.367Zm-6.599,184.398c-40.376,0-56.678-34.16-57.455-76.086v-4.272c.777-41.539,17.08-74.926,57.455-74.926,39.985,0,60.56,30.668,60.56,77.253,0,47.362-20.575,78.03-60.56,78.03Z"/>
  </g>
  <g id="b" data-name="Laag 2">
    <path d="M285.603,75.312c-57.065,0-95.5,42.316-95.5,107.144s38.435,106.758,95.5,106.758,95.5-41.926,95.5-106.758-38.431-107.144-95.5-107.144Zm0,188.669c-39.595,0-65.605-34.163-65.605-81.525,0-48.135,26.01-81.911,65.605-81.911,39.985,0,65.609,33.777,65.609,81.911,0,47.362-25.623,81.525-65.609,81.525Z"/>
  </g>
  <g id="c" data-name="Laag 3">
    <path d="M441.43,225.16V102.099h33.773v-25.623h-33.773V21.352h-29.891v55.124h-31.445v25.623h31.445v123.451c0,58.619,45.031,59.783,71.818,59.783v-28.728c-14.752,0-41.926,3.104-41.926-31.445"/>
  </g>
  <g id="d" data-name="Laag 4">
    <path d="M585.065,263.982c-39.989,0-62.114-20.188-65.609-67.549h159.942c0-79.194-33.386-121.12-94.333-121.12-57.069,0-95.891,35.714-95.891,107.144s38.822,106.758,95.891,106.758c61.337,0,92.779-39.208,92.779-73.372h-29.891c0,32.222-31.446,48.139-62.887,48.139Zm0-163.436c35.327,0,64.828,31.059,64.828,71.431h-130.437c3.104-50.466,28.337-71.431,65.609-71.431Z"/>
  </g>
  <g id="e" data-name="Laag 5">
    <polygon points="735.452 285.333 705.561 285.333 705.561 5.822 735.066 5.822 735.452 285.333"/>
  </g>
  <g id="f" data-name="Laag 6">
    <polygon points="797.446 285.333 767.554 285.333 767.554 5.822 797.059 5.822 797.446 285.333"/>
  </g>
  <g id="g" data-name="Laag 7">
    <path d="M912.59,75.312c-57.069,0-95.5,42.316-95.5,107.144s38.431,106.758,95.5,106.758,95.497-41.926,95.497-106.758-38.431-107.144-95.497-107.144Zm0,188.669c-39.599,0-65.609-34.163-65.609-81.525,0-48.135,26.01-81.911,65.609-81.911,39.985,0,65.605,33.777,65.605,81.911,0,47.362-25.62,81.525-65.605,81.525Z"/>
    <path d="M945.977,0h-22.906c0,27.951-15.916,41.149-47.748,41.149v26.01c43.476,0,70.654-27.174,70.654-67.159"/>
  </g>
  <g id="h" data-name="Laag 8">
    <path d="M1190,285.333l-.387-127.332c0-50.856-18.634-82.302-71.044-82.302-30.669,0-50.853,15.529-63.278,37.271v-33.386h-29.891v205.749h29.891v-119.179c2.718-35.327,18.247-64.445,61.337-64.445,37.268,0,43.48,31.836,43.48,72.208v111.416h29.891Z"/>
  </g>
</svg>