<?xml version="1.0" standalone="no"?>
<!DOCTYPE svg PUBLIC "-//W3C//DTD SVG 20010904//EN"
 "http://www.w3.org/TR/2001/REC-SVG-20010904/DTD/svg10.dtd">
<svg version="1.0" xmlns="http://www.w3.org/2000/svg"
 width="293.000000pt" height="293.000000pt" viewBox="0 0 293.000000 293.000000"
 preserveAspectRatio="xMidYMid meet">
<metadata>
Created by potrace 1.14, written by Peter Selinger 2001-2017
</metadata>
<g transform="translate(0.000000,293.000000) scale(0.100000,-0.100000)"
fill="#000000" stroke="none">
<path d="M1563 2899 c6 -39 -14 -132 -39 -183 -62 -124 -172 -186 -361 -202
-37 -4 -70 -8 -72 -10 -10 -9 -2 -247 8 -253 6 -4 42 -4 81 0 218 24 401 122
499 268 70 104 101 196 116 339 l7 62 -121 0 c-118 0 -121 -1 -118 -21z"/>
<path d="M1275 2150 c-203 -36 -351 -114 -486 -257 -77 -81 -129 -159 -174
-256 -35 -75 -78 -219 -90 -297 -4 -25 -9 -58 -11 -75 -7 -43 -7 -272 0 -327
19 -148 45 -250 90 -357 113 -269 340 -462 617 -527 236 -55 492 -26 694 79
215 112 375 315 449 571 42 145 51 222 49 421 -3 374 -131 666 -373 858 -87
69 -255 146 -355 163 -16 2 -38 7 -48 10 -47 14 -266 11 -362 -6z m365 -261
c167 -51 295 -166 379 -337 29 -58 58 -138 66 -183 3 -13 7 -35 10 -49 3 -14
8 -36 11 -50 16 -76 11 -289 -10 -395 -13 -67 -16 -79 -27 -114 -78 -242 -253
-415 -469 -463 -64 -15 -205 -17 -268 -4 -96 19 -222 88 -296 162 -111 111
-197 306 -221 499 -5 40 -5 243 -1 275 12 83 18 115 21 121 2 3 7 20 10 38 18
103 107 262 194 349 103 103 224 160 361 169 41 3 76 6 78 8 5 4 128 -16 162
-26z"/>
</g>
</svg>
